<svg xmlns="http://www.w3.org/2000/svg" width="512" height="640" viewBox="0 0 512 640">
  <rect width="512" height="640" fill="#f6f2ea"/>
  <path
    d="M128 140c22-32 58-52 96-52h64c38 0 74 20 96 52l36 52v248c0 35-28 64-64 64H156c-35 0-64-29-64-64V192z"
    fill="#ded2bf"
  />
  <path
    d="M192 160c0 53 35 96 78 96s78-43 78-96c0-22-7-43-20-60H212c-13 17-20 38-20 60z"
    fill="#efe6d6"
  />
  <path
    d="M208 360h96c22 0 40 18 40 40v64H168v-64c0-22 18-40 40-40z"
    fill="#cbb89c"
  />
</svg>
